<svg id="Layer_1" data-name="Layer 1" xmlns="http://www.w3.org/2000/svg" viewBox="0 0 302.24 81.73">
  <defs>
    <style>
      .cls-1 {
        fill: #fff;
      }

      .cls-2 {
        fill: #1041a3;
      }
    </style>
  </defs>
  <g>
    <path class="cls-1" d="M61.29,1.23H289.12a11.56,11.56,0,0,1,11.56,11.56v55.7A11.56,11.56,0,0,1,289.12,80H61.29a0,0,0,0,1,0,0V1.23A0,0,0,0,1,61.29,1.23Z"/>
    <rect class="cls-1" x="11.11" y="26.41" width="47.11" height="44.44"/>
    <g>
      <path class="cls-2" d="M39.61,38.65a8.64,8.64,0,0,0-6-2.19,8.64,8.64,0,0,0-5.78,2,9.83,9.83,0,0,0-3.18,5.35l0,.18H42.86l0-.18A10.46,10.46,0,0,0,39.61,38.65Z"/>
      <path class="cls-2" d="M290.13,0h-278A12.12,12.12,0,0,0,0,12.11V69.62A12.12,12.12,0,0,0,12.11,81.73h278a12.12,12.12,0,0,0,12.11-12.11V12.11A12.12,12.12,0,0,0,290.13,0ZM51.93,49.16c0,.44-.09.87-.15,1.32l0,.3H24.64l0,.16a9.75,9.75,0,0,0,3.14,5.29,8.79,8.79,0,0,0,6,2.06,10.1,10.1,0,0,0,5.38-1.41,10.49,10.49,0,0,0,3.28-3.1l.2-.29,7.08,5.32-.19.27a15.84,15.84,0,0,1-6.16,5.12,21.19,21.19,0,0,1-9.59,2.15,18.45,18.45,0,0,1-9.73-2.56A17.78,17.78,0,0,1,17.54,57a19.46,19.46,0,0,1-2.3-9.42,19.19,19.19,0,0,1,2.4-9.48,18.65,18.65,0,0,1,6.59-6.87,18.08,18.08,0,0,1,9.56-2.55,17.61,17.61,0,0,1,9.47,2.55,17.87,17.87,0,0,1,6.42,6.86A20,20,0,0,1,52,47.58C52,48.14,52,48.72,51.93,49.16ZM299.35,69.62a9.24,9.24,0,0,1-9.22,9.22H65.78V2.89H290.13a9.24,9.24,0,0,1,9.22,9.22Z"/>
    </g>
    <g>
      <path d="M91.72,64.71c-3.32,0-5.88-.81-7.61-2.41s-2.57-4.24-2.57-7.91V36.57H76.47V30.32h5.07V22.93l7.65-.79v8.18h7.64v6.25H89.19V53.91c0,2.67,1.38,4.2,3.79,4.2h3v6.6Z"/>
      <path d="M116.32,65.62a15.9,15.9,0,0,1-8.54-2.41,17.86,17.86,0,0,1-6.16-6.49,18.3,18.3,0,0,1-2.29-9.07,18.64,18.64,0,0,1,1.33-7,18.91,18.91,0,0,1,3.65-5.78,17.23,17.23,0,0,1,5.4-3.89,15.48,15.48,0,0,1,6.61-1.42,13.75,13.75,0,0,1,9.52,3.52,13.45,13.45,0,0,1,2.82,3.75c0-2.17,0-4.33,0-6.5h7.58V64.71h-7.36V58a10.56,10.56,0,0,1-1.07,1.61,17.85,17.85,0,0,1-4.18,4.07A13.41,13.41,0,0,1,116.32,65.62Zm1.54-29.33a10.57,10.57,0,0,0-5.72,1.56A10.75,10.75,0,0,0,108.33,42,12,12,0,0,0,107,47.58a11.82,11.82,0,0,0,1.35,5.52,11,11,0,0,0,3.81,4.17,10.32,10.32,0,0,0,5.72,1.6,10.73,10.73,0,0,0,5.84-1.56,10.55,10.55,0,0,0,3.81-4.11,11.66,11.66,0,0,0,1.36-5.55A11.88,11.88,0,0,0,127.51,42a11,11,0,0,0-3.8-4.14A10.59,10.59,0,0,0,117.86,36.29Z"/>
      <path d="M266,65.62a15.88,15.88,0,0,1-8.54-2.41,17.88,17.88,0,0,1-6.17-6.49A18.3,18.3,0,0,1,249,47.65a18.65,18.65,0,0,1,5-12.79A17.19,17.19,0,0,1,259.33,31,15.53,15.53,0,0,1,266,29.55a13.71,13.71,0,0,1,9.51,3.52,13.29,13.29,0,0,1,2.83,3.75c0-2.17,0-4.33,0-6.5h7.58V64.71h-7.37V58a10.91,10.91,0,0,1-1.06,1.61,17.72,17.72,0,0,1-4.19,4.07A13.4,13.4,0,0,1,266,65.62Zm1.53-29.33a10.51,10.51,0,0,0-5.71,1.56A10.78,10.78,0,0,0,258,42a12,12,0,0,0-1.34,5.62A11.81,11.81,0,0,0,258,53.1a11,11,0,0,0,3.81,4.17,10.34,10.34,0,0,0,5.72,1.6,10.71,10.71,0,0,0,5.84-1.56,10.57,10.57,0,0,0,3.82-4.11,11.65,11.65,0,0,0,1.35-5.55A11.87,11.87,0,0,0,277.14,42a11.2,11.2,0,0,0-3.8-4.14A10.65,10.65,0,0,0,267.48,36.29Z"/>
      <path d="M163.44,65.62c-3,0-5.41-.58-7-1.72a11.6,11.6,0,0,1-3.85-4.6L151.44,57l-.55.13v7.59h-7.36v-49h7.64V37.4l.55.14,1.1-2.14a10.83,10.83,0,0,1,3.8-4.25,12.31,12.31,0,0,1,6.82-1.6A15.56,15.56,0,0,1,170.06,31a17.47,17.47,0,0,1,5.4,3.89,18.84,18.84,0,0,1,3.64,5.78,18.64,18.64,0,0,1,1.33,7,18.4,18.4,0,0,1-2.28,9.07,18.14,18.14,0,0,1-6.13,6.5A16,16,0,0,1,163.44,65.62Zm-1.53-29.33a10.7,10.7,0,0,0-5.81,1.59A11,11,0,0,0,152.25,42a11.88,11.88,0,0,0-1.36,5.62,11.63,11.63,0,0,0,1.36,5.55,10.59,10.59,0,0,0,3.85,4.12,10.8,10.8,0,0,0,5.81,1.55,10.36,10.36,0,0,0,5.72-1.6,10.9,10.9,0,0,0,3.8-4.17,12.09,12.09,0,0,0,0-11.14,10.62,10.62,0,0,0-3.81-4.11A10.46,10.46,0,0,0,161.91,36.29Z"/>
      <rect x="186.34" y="15.72" width="7.65" height="48.99"/>
      <path d="M201.27,64.71V30.32h7.66V64.71Zm3.79-39.12a4.56,4.56,0,0,1-3.38-1.38,4.61,4.61,0,0,1,0-6.56,4.88,4.88,0,0,1,6.8,0,4.46,4.46,0,0,1,1.34,3.25,4.44,4.44,0,0,1-1.34,3.34A4.6,4.6,0,0,1,205.06,25.59Z"/>
      <path d="M232.59,65.62a17.39,17.39,0,0,1-6.92-1.39,18,18,0,0,1-9.49-9.64,18.43,18.43,0,0,1-1.35-7.07,18,18,0,0,1,2.35-9.12,17.8,17.8,0,0,1,6.5-6.54,18.18,18.18,0,0,1,9.4-2.45h.34a19.27,19.27,0,0,1,8.12,1.65,14.94,14.94,0,0,1,5.34,4.08L241,39.94a10.44,10.44,0,0,0-3-2.5,9.8,9.8,0,0,0-4.84-1.22,10.33,10.33,0,0,0-5.68,1.57,10.61,10.61,0,0,0-3.74,4.12,12,12,0,0,0-1.32,5.61,11.61,11.61,0,0,0,1.4,5.58,10.8,10.8,0,0,0,3.84,4.15,10.55,10.55,0,0,0,5.71,1.55,9.14,9.14,0,0,0,5.06-1.35,13.33,13.33,0,0,0,2.91-2.57l5.48,4.75a17.34,17.34,0,0,1-5.52,4.24A20.09,20.09,0,0,1,232.59,65.62Z"/>
    </g>
  </g>
</svg>
